#!OML:ASF H:\Terrain\Patient Classification 1\Walking\steve\steve.ASF
:FULLY-SPECIFIED
:DEGREES
1
root 7.1998 15.3951 -37.2754 6.10139 -3.02043 2.41388
lowerback 1.84522 1.21672 -3.57218
upperback -3.25157 1.48783 0.131133
thorax -4.49007 0.86432 2.05063
lowerneck -10.3665 0.926344 -4.57102
upperneck 11.2456 1.6017 2.82831
head 5.01894 0.779915 1.74157
rclavicle -7.24322e-015 1.78906e-015
rhumerus -48.7802 -16.4041 -75.631
rradius 23.0157
rwrist -0.428203
rhand -16.8091 -40.1969
rfingers 7.12502
rthumb 9.41951 -69.9664
lclavicle -7.24322e-015 1.78906e-015
lhumerus -26.1257 6.40538 84.5992
lradius 22.9068
lwrist 6.47049
lhand -19.0247 -9.26244
lfingers 7.12502
lthumb 7.28135 20.5923
rfemur -38.7114 0.842407 22.4367
rtibia 59.3209
rfoot -17.2328 -0.13319
rtoes -18.826
lfemur -10.958 1.25213 -27.2304
ltibia 30.9546
lfoot -18.8399 -5.31854
ltoes 11.7462
2
root 7.19542 15.3894 -37.0435 6.30564 -2.92905 3.31639
lowerback 1.53702 1.13178 -4.83878
upperback -3.25238 1.33704 0.0538157
thorax -4.34173 0.827798 2.69511
lowerneck -10.8463 0.835598 -4.95533
upperneck 11.7077 1.504 3.25169
head 5.23988 0.742981 1.93922
rclavicle -1.10791e-014 1.98785e-015
rhumerus -50.0461 -17.7644 -73.6657
rradius 21.4246
rwrist 2.04042
rhand -17.584 -40.351
rfingers 7.12502
rthumb 8.67181 -70.1529
lclavicle -1.10791e-014 1.98785e-015
lhumerus -24.6247 4.53635 85.3282
lradius 24.2092
lwrist 8.19376
lhand -19.5431 -8.58166
lfingers 7.12502
lthumb 6.78091 21.2898
rfemur -39.9037 0.77957 21.6326
rtibia 57.1828
rfoot -17.5151 0.787256
rtoes -13.0268
lfemur -9.56659 1.27877 -28.1789
ltibia 29.5383
lfoot -18.2058 -6.57998
ltoes 17.8349
3
root 7.19045 15.3745 -36.804 6.42944 -2.71638 3.92923
lowerback 1.28822 1.00578 -5.71899
upperback -3.23884 1.15034 -0.0170274
thorax -4.19342 0.758717 3.12979
lowerneck -10.8177 0.807073 -4.97996
upperneck 11.6619 1.45173 3.37582
head 5.22165 0.725217 1.97755
rclavicle 1.43063e-014 1.88845e-014
rhumerus -51.472 -19.5526 -71.2678
rradius 19.6613
rwrist 5.33519
rhand -18.523 -39.8775
rfingers 7.12502
rthumb 7.7656 -69.7149
lclavicle 1.43063e-014 1.88845e-014
lhumerus -23.206 2.70178 85.6889
lradius 25.5088
lwrist 10.2593
lhand -19.5269 -8.78075
lfingers 7.12502
lthumb 6.79654 21.0902
rfemur -40.7926 0.625329 21.1717
rtibia 54.625
rfoot -17.6649 1.26815
rtoes -13.9046
lfemur -8.04386 1.53065 -28.7111
ltibia 28.1718
lfoot -18.7022 -5.37085
ltoes 0.73058
4
root 7.19348 15.3672 -36.5645 6.51418 -2.24526 3.9891
lowerback 1.03546 0.800614 -5.92049
upperback -3.1234 0.893563 0.0691067
thorax -3.91026 0.628589 3.35014
lowerneck -10.743 0.818423 -4.82796
upperneck 11.3577 1.45219 3.29652
head 5.11634 0.728613 1.92382
rclavicle 3.38493e-014 5.96354e-016
rhumerus -53.0331 -21.4637 -68.4477
rradius 18.14
rwrist 10.0271
rhand -18.1219 -39.4459
rfingers 7.12502
rthumb 8.15265 -69.2686
lclavicle 3.38493e-014 5.96354e-016
lhumerus -21.8521 0.758997 86.0282
lradius 27.0434
lwrist 12.2391
lhand -20.4028 -8.70214
lfingers 7.12502
lthumb 5.95097 21.1943
rfemur -41.4351 0.404224 21.2604
rtibia 51.7428
rfoot -17.9281 1.2606
rtoes -12.9533
lfemur -6.56981 1.42792 -28.6436
ltibia 27.0517
lfoot -18.6336 -5.78008
ltoes -2.85619
5
root 7.19758 15.3849 -36.3347 6.67605 -1.72598 3.38737
lowerback 1.02953 0.671876 -5.39416
upperback -3.14886 0.745555 0.314063
thorax -3.91089 0.543601 3.31604
lowerneck -10.6815 0.739763 -4.80881
upperneck 11.1574 1.33491 3.35099
head 5.04852 0.676915 1.92657
rclavicle -1.19923e-014 -1.19271e-015
rhumerus -55.454 -24.206 -64.1499
rradius 16.8469
rwrist 16.6185
rhand -15.9029 -38.4525
rfingers 7.12502
rthumb 10.2938 -68.1806
lclavicle -1.19923e-014 -1.19271e-015
lhumerus -20.5113 -0.430325 86.2109
lradius 28.3043
lwrist 13.3375
lhand -21.4114 -8.35434
lfingers 7.12502
lthumb 4.97713 21.5672
rfemur -41.7934 0.273079 22.0223
rtibia 48.4027
rfoot -17.6694 1.3436
rtoes -10.8078
lfemur -5.3656 1.52738 -27.8524
ltibia 26.0525
lfoot -18.5273 -5.85652
ltoes -6.65018
6
root 7.19637 15.4052 -36.1074 6.94353 -1.26808 3.01349
lowerback 1.07686 0.594372 -5.1027
upperback -3.29578 0.649346 0.45317
thorax -4.0781 0.496405 3.30011
lowerneck -10.5705 0.618278 -4.73694
upperneck 11.0147 1.14886 3.40557
head 4.99356 0.592817 1.9162
rclavicle 2.59352e-015 9.14409e-015
rhumerus -58.4606 -26.9022 -59.2864
rradius 15.727
rwrist 22.4039
rhand -14.3842 -37.6344
rfingers 7.12502
rthumb 11.7586 -67.2843
lclavicle 2.59352e-015 9.14409e-015
lhumerus -19.1361 -1.89838 86.2543
lradius 29.3033
lwrist 15.0121
lhand -21.8949 -8.51651
lfingers 7.12502
lthumb 4.51026 21.4155
rfemur -42.151 0.536444 22.3652
rtibia 44.8114
rfoot -17.3359 1.11365
rtoes -10.9839
lfemur -4.21432 2.44997 -27.1636
ltibia 25.0796
lfoot -18.2823 -6.57401
ltoes -10.8898
7
root 7.19426 15.4075 -35.867 7.11719 -0.90448 3.05942
lowerback 0.99473 0.512604 -5.29629
upperback -3.32356 0.541487 0.548557
thorax -4.05474 0.450716 3.51381
lowerneck -10.6966 0.49086 -4.7956
upperneck 11.0148 0.987146 3.4435
head 5.02113 0.514554 1.92705
rclavicle -2.53264e-014 -5.96354e-015
rhumerus -61.0292 -28.3895 -55.3907
rradius 14.88
rwrist 25.6788
rhand -14.2927 -37.518
rfingers 7.12502
rthumb 11.8468 -67.1629
lclavicle -2.53264e-014 -5.96354e-015
lhumerus -17.6972 -3.46113 86.3126
lradius 30.0865
lwrist 16.7581
lhand -22.4467 -9.85022
lfingers 7.12502
lthumb 3.97738 20.0924
rfemur -42.3955 1.62266 21.8353
rtibia 41.2531
rfoot -17.4865 0.384098
rtoes -10.1991
lfemur -2.84221 3.25419 -26.9715
ltibia 23.8403
lfoot -17.8486 -7.22937
ltoes -14.1416
8
root 7.19366 15.409 -35.6264 7.22499 -0.534546 3.11551
lowerback 1.082 0.422502 -5.47513
upperback -3.40739 0.411123 0.631446
thorax -4.18254 0.39855 3.70635
lowerneck -10.8976 0.403951 -4.82501
upperneck 11.2171 0.872151 3.51396
head 5.122 0.461862 1.94901
rclavicle -5.59082e-017 8.34896e-015
rhumerus -63.9584 -29.5629 -51.384
rradius 14.3627
rwrist 28.9878
rhand -14.1867 -37.3412
rfingers 7.12502
rthumb 11.949 -66.9801
lclavicle -5.59082e-017 8.34896e-015
lhumerus -16.331 -3.6515 86.2861
lradius 30.7916
lwrist 16.941
lhand -23.2314 -11.1043
lfingers 7.12502
lthumb 3.21963 18.8511
rfemur -42.5666 2.81827 21.1023
rtibia 37.779
rfoot -17.4126 -0.500768
rtoes -7.54259
lfemur -1.19759 3.59475 -26.8574
ltibia 22.3326
lfoot -17.5483 -7.08526
ltoes -18.2571
9
root 7.1942 15.3663 -35.3903 7.41588 -0.0605853 3.2621
lowerback 1.0091 0.289111 -5.65231
upperback -3.42321 0.230857 0.620047
thorax -4.14074 0.313603 3.80305
lowerneck -10.9786 0.314217 -4.48885
upperneck 11.1125 0.724262 3.335
head 5.11172 0.392755 1.82677
rclavicle 2.67117e-016 -7.15625e-015
rhumerus -66.7949 -30.6415 -47.7433
rradius 14.0517
rwrist 32.1927
rhand -14.4493 -37.4599
rfingers 7.12502
rthumb 11.6959 -67.1135
lclavicle 2.67117e-016 -7.15625e-015
lhumerus -14.7975 -3.5554 86.0009
lradius 31.8966
lwrist 17.6773
lhand -23.2397 -10.8636
lfingers 7.12502
lthumb 3.2116 19.092
rfemur -43.0747 3.27201 20.4704
rtibia 34.6607
rfoot -16.8352 -0.971629
rtoes -5.66328
lfemur 0.543604 3.3114 -26.7946
ltibia 20.3178
lfoot -15.735 -9.10814
ltoes -7.0551
10
root 7.19238 15.3545 -35.1482 7.64717 0.29188 3.68544
lowerback 0.536142 0.161842 -6.13553
upperback -3.24528 0.081593 0.574528
thorax -3.67478 0.235404 4.03444
lowerneck -10.8154 0.208257 -4.28421
upperneck 10.4575 0.574666 3.13796
head 4.88899 0.317254 1.71448
rclavicle -1.93567e-014 1.31198e-014
rhumerus -68.8517 -31.292 -44.9265
rradius 13.9607
rwrist 35.0962
rhand -13.7586 -39.3623
rfingers 7.12502
rthumb 12.3618 -68.9768
lclavicle -1.93567e-014 1.31198e-014
lhumerus -13.2039 -4.26829 85.6879
lradius 33.2262
lwrist 19.3511
lhand -23.1453 -10.1733
lfingers 7.12502
lthumb 3.30274 19.7808
rfemur -43.5789 3.26753 19.7538
rtibia 31.7312
rfoot -16.4035 -0.709234
rtoes -5.26728
lfemur 2.20431 3.44556 -27.0637
ltibia 17.9312
lfoot -14.1851 -9.43828
ltoes -5.71453
11
root 7.1872 15.3509 -34.9039 7.95629 0.598444 4.2552
lowerback 0.495589 0.105903 -6.84094
upperback -3.45325 -0.016655 0.514213
thorax -3.86492 0.218985 4.37286
lowerneck -10.6295 0.138565 -4.46369
upperneck 10.2128 0.483208 3.3117
head 4.78482 0.27669 1.78849
rclavicle -2.29286e-014 1.63003e-014
rhumerus -71.3432 -31.2805 -41.9527
rradius 13.9673
rwrist 37.5097
rhand -12.6519 -40.9929
rfingers 7.12502
rthumb 13.4288 -70.54
lclavicle -2.29286e-014 1.63003e-014
lhumerus -12.29 -5.19157 85.6388
lradius 34.5831
lwrist 20.5523
lhand -23.4325 -9.7066
lfingers 7.12502
lthumb 3.02541 20.2517
rfemur -44.1968 3.70895 18.59
rtibia 29.0532
rfoot -16.6146 -0.58469
rtoes -4.45442
lfemur 4.02695 3.40252 -27.5144
ltibia 15.414
lfoot -13.0839 -9.33156
ltoes -7.11997
